# xmcd
# Track frame offsets:
# 150
# 17172
# 31790
# 45385
# 61465
# 79420
# 94420
# 113615
# 129152
# 145705
#
# Disc length: 2136 seconds
# Revision: 0
# Processed by: cddbd v1.4PL0 Copyright (c) Steve Scherf et al.
# Submitted via: VisiTrax 2.9.1.155 - For more info visit www.synapsa.com
#
DISCID=7908560a
DTITLE=Various Artist - Gotta Get it Hits - Country
DYEAR=1900
DGENRE=
TTITLE0=One
TTITLE1=Safe in the Arms of Love
TTITLE2=How do You Fall in Love
TTITLE3=You're Easy on the Eyes
TTITLE4=The Fun of Your Love
TTITLE5=Me Neither
TTITLE6=A Little Past Little Rock
TTITLE7=Out Here in the Water
TTITLE8=Almost Doesn't Count
TTITLE9=Guys do it all the Time
EXTD=Added 11-14-2002
EXTT0=
EXTT1=
EXTT2=
EXTT3=
EXTT4=
EXTT5=
EXTT6=
EXTT7=
EXTT8=
EXTT9=
PLAYORDER=
